<?xml version="1.0" encoding="iso-8859-1"?>
<!-- Generator: Adobe Illustrator 19.0.0, SVG Export Plug-In . SVG Version: 6.00 Build 0)  -->
<svg version="1.1" id="Layer_1" xmlns="http://www.w3.org/2000/svg" xmlns:xlink="http://www.w3.org/1999/xlink" x="0px" y="0px"
	 viewBox="0 0 455 455" style="enable-background:new 0 0 455 455;" xml:space="preserve">
<g>
	<path style="fill:#FFFFFF;" d="M147.472,339.246C170.03,355.447,197.669,365,227.5,365v-58.559L147.472,339.246z"/>
	<path style="fill:#FFFFFF;" d="M227.5,148.559V90C151.68,90,90,151.68,90,227.5c0,29.831,9.553,57.47,25.754,80.028L171.51,171.51
		L227.5,148.559z"/>
	<path style="fill:#E0E0E2;" d="M283.49,283.49l-55.99,22.951V365c75.82,0,137.5-61.68,137.5-137.5
		c0-29.831-9.553-57.47-25.754-80.028L283.49,283.49z"/>
	<path style="fill:#E0E0E2;" d="M307.528,115.754C284.97,99.553,257.331,90,227.5,90v58.559L307.528,115.754z"/>
	<path style="fill:#D8D7DA;" d="M147.472,339.246L93.72,361.28l22.034-53.752C99.553,284.97,90,257.331,90,227.5H0
		C0,352.94,102.06,455,227.5,455v-90C197.669,365,170.03,355.447,147.472,339.246z"/>
	<path style="fill:#E0E0E2;" d="M227.5,90V0C102.06,0,0,102.06,0,227.5h90C90,151.68,151.68,90,227.5,90z"/>
	<path style="fill:#D8D7DA;" d="M307.528,115.754L361.28,93.72l-22.034,53.752C355.447,170.03,365,197.669,365,227.5h90
		C455,102.06,352.94,0,227.5,0v90C257.331,90,284.97,99.553,307.528,115.754z"/>
	<path style="fill:#C6C5CA;" d="M365,227.5c0,75.82-61.68,137.5-137.5,137.5v90C352.94,455,455,352.94,455,227.5H365z"/>
	<polygon style="fill:#FF3501;" points="171.51,171.51 283.49,283.49 339.246,147.472 361.28,93.72 307.528,115.754 227.5,148.559 	
		"/>
	<polygon style="fill:#CD2A00;" points="283.49,283.49 171.51,171.51 115.754,307.528 93.72,361.28 147.472,339.246 227.5,306.441 	
		"/>
</g>

</svg>
